<svg xmlns="http://www.w3.org/2000/svg" width="153" height="54" viewBox="0 0 153 54">
  <path fill="#151418" d="M131.274837,10.6849315 C137.474189,10.6849315 142.644887,12.7123288 146.786932,16.7671233 C150.928977,20.8219178 153,26 153,32.3013699 C153,38.6027397 150.928977,43.7945205 146.786932,47.8767123 C142.644887,51.9589041 137.474189,54 131.274837,54 C125.130346,54 119.973363,51.9452055 115.803887,47.8356164 C111.634411,43.7260274 109.549673,38.5479452 109.549673,32.3013699 C109.549673,26.0547945 111.634411,20.890411 115.803887,16.8082192 C119.973363,12.7260274 125.130346,10.6849315 131.274837,10.6849315 Z M21.7251634,10.6849315 C27.9245156,10.6849315 33.0952143,12.7123288 37.2372593,16.7671233 C41.3793044,20.8219178 43.4503269,26 43.4503269,32.3013699 C43.4503269,38.6027397 41.3793044,43.7945205 37.2372593,47.8767123 C33.0952143,51.9589041 27.9245156,54 21.7251634,54 C15.5806728,54 10.4236895,51.9452055 6.25421372,47.8356164 C2.08473791,43.7260274 0,38.5479452 0,32.3013699 C0,26.0547945 2.08473791,20.890411 6.25421372,16.8082192 C10.4236895,12.7260274 15.5806728,10.6849315 21.7251634,10.6849315 Z M65.555126,0 L65.555126,11.9178082 L79.4625223,11.9178082 C81.5472602,11.9178082 83.124529,11.3013699 84.1943287,10.0684932 C85.2046951,8.90410959 85.737944,7.40981735 85.7940755,5.58561644 L85.7990283,5.26027397 L85.7990283,0 L96.9907792,0 L96.9907792,11.9178082 L104.973131,11.9178082 L104.973131,22.8493151 L96.9907792,22.8493151 L96.9907792,38.1369863 C96.9907792,40.9863014 98.4994711,42.4109589 101.516855,42.4109589 C102.394639,42.4109589 103.359118,42.3027228 104.410292,42.0862506 L104.808546,42 L104.808546,52.3561644 C103.272424,53.1232877 101.105393,53.5068493 98.3074557,53.5068493 C94.0831184,53.5068493 90.7502808,52.3287671 88.308943,49.9726027 C85.946358,47.6924437 84.7269593,44.6168802 84.6507469,40.7459125 L84.6469363,40.3561644 L84.6469363,22.8493151 L65.555126,22.8493151 L65.555126,38.1369863 C65.555126,40.9863014 67.0638179,42.4109589 70.0812017,42.4109589 C70.9589861,42.4109589 71.9234652,42.3027228 72.9746391,42.0862506 L73.3728931,42 L73.3728931,52.3561644 C71.8367705,53.1232877 69.6697403,53.5068493 66.8718026,53.5068493 C62.6474652,53.5068493 59.3146277,52.3287671 56.8732898,49.9726027 C54.5107049,47.6924437 53.2913062,44.6168802 53.2150938,40.7459125 L53.2112831,40.3561644 L53.2112831,22.8493151 L45.969562,22.8493151 L45.969562,11.9178082 L48.0268691,11.9178082 C50.111607,11.9178082 51.6888758,11.3013699 52.7586756,10.0684932 C53.769042,8.90410959 54.3022909,7.40981735 54.3584224,5.58561644 L54.3633751,5.26027397 L54.3633751,0 L65.555126,0 Z M21.7251634,22.1917808 C19.2015333,22.1917808 17.0345031,23.0684932 15.2240729,24.8219178 C13.4136426,26.5753425 12.5084274,29.0684932 12.5084274,32.3013699 C12.5084274,35.5342466 13.4136426,38.0410959 15.2240729,39.8219178 C17.0345031,41.6027397 19.2015333,42.4931507 21.7251634,42.4931507 C24.3036551,42.4931507 26.4844006,41.6164384 28.2674002,39.8630137 C30.0503997,38.109589 30.9418994,35.5890411 30.9418994,32.3013699 C30.9418994,29.0136986 30.0503997,26.5068493 28.2674002,24.7808219 C26.4844006,23.0547945 24.3036551,22.1917808 21.7251634,22.1917808 Z M131.274837,22.1917808 C128.751206,22.1917808 126.584176,23.0684932 124.773746,24.8219178 C122.963316,26.5753425 122.058101,29.0684932 122.058101,32.3013699 C122.058101,35.5342466 122.963316,38.0410959 124.773746,39.8219178 C126.584176,41.6027397 128.751206,42.4931507 131.274837,42.4931507 C133.853328,42.4931507 136.034074,41.6164384 137.817073,39.8630137 C139.600073,38.109589 140.491573,35.5890411 140.491573,32.3013699 C140.491573,29.0136986 139.600073,26.5068493 137.817073,24.7808219 C136.034074,23.0547945 133.853328,22.1917808 131.274837,22.1917808 Z"/>
</svg>
